<?xml version="1.0" standalone="no"?>
<!DOCTYPE svg PUBLIC "-//W3C//DTD SVG 20010904//EN"
 "http://www.w3.org/TR/2001/REC-SVG-20010904/DTD/svg10.dtd">
<svg version="1.0" xmlns="http://www.w3.org/2000/svg"
 width="750.000000pt" height="630.000000pt" viewBox="0 0 750.000000 630.000000"
 preserveAspectRatio="xMidYMid meet">

<g transform="translate(0.000000,630.000000) scale(0.100000,-0.100000)"
fill="#000000" stroke="none">
<path d="M0 3150 l0 -3150 383 1 382 0 -70 18 c-38 11 -73 17 -77 15 -3 -2 -8
-1 -10 3 -1 5 -28 19 -58 33 -30 14 -80 42 -112 62 -32 21 -58 36 -58 34 0 -2
-21 18 -47 44 -26 27 -52 46 -57 43 -5 -3 -6 -1 -3 4 4 6 -9 25 -28 42 -20 17
-33 31 -30 31 3 0 -7 19 -23 43 -16 23 -42 67 -57 97 -15 30 -30 57 -34 60 -3
3 -7 12 -8 20 -3 23 -47 164 -53 170 -3 3 -5 12 -5 20 0 8 -6 62 -14 120 -10
79 -12 156 -6 310 8 241 10 274 17 286 3 5 8 36 12 70 4 33 24 148 46 255 21
106 37 196 34 200 -2 4 -1 9 3 11 7 3 74 256 87 328 19 99 313 1000 371 1135
7 17 34 89 60 160 26 72 60 158 76 193 16 35 27 67 24 72 -3 5 -1 10 4 12 4 1
36 74 71 161 46 118 74 173 108 216 26 33 49 57 51 55 2 -2 16 5 30 15 14 11
76 42 136 71 347 165 835 310 1044 310 68 0 90 -4 132 -25 67 -34 186 -149
331 -320 290 -340 329 -380 419 -427 l44 -23 645 0 645 0 50 29 c69 40 194
169 371 381 168 201 284 316 363 359 51 27 57 28 160 24 231 -11 673 -147
1012 -312 204 -99 231 -130 325 -366 32 -80 61 -147 66 -148 4 -2 6 -7 3 -12
-5 -7 33 -110 45 -120 3 -3 5 -9 5 -15 0 -14 107 -299 114 -305 3 -3 7 -12 7
-20 1 -8 40 -123 87 -255 47 -132 99 -287 117 -345 18 -58 36 -107 39 -110 3
-3 6 -9 6 -15 0 -15 98 -349 105 -355 3 -3 5 -10 5 -15 0 -17 79 -329 85 -335
3 -3 5 -14 6 -25 1 -11 17 -101 37 -200 36 -181 67 -389 67 -455 0 -19 5 -42
10 -50 6 -10 10 877 10 2513 l0 2527 -1072 -1 c-590 -1 -1059 -4 -1041 -9 18
-4 80 -31 139 -61 84 -42 117 -65 158 -110 122 -135 213 -407 272 -809 13 -91
24 -177 24 -192 0 -33 -3 -34 -149 -13 -58 8 -211 29 -340 45 -130 17 -270 35
-311 41 l-75 11 1 501 c1 558 0 553 67 582 27 12 -175 14 -1423 14 -1248 0
-1450 -2 -1423 -14 67 -29 66 -24 67 -582 l1 -501 -35 -6 c-19 -3 -143 -19
-275 -36 -132 -17 -303 -40 -380 -50 -185 -26 -185 -26 -185 8 0 44 39 298 66
429 50 244 136 463 220 562 40 46 101 91 154 111 19 7 48 23 64 34 17 11 50
26 75 32 37 10 -159 13 -1026 13 l-1073 1 0 -3150z m3892 1493 c68 -30 139
-102 171 -171 17 -36 22 -66 22 -132 0 -76 -3 -92 -33 -152 -36 -73 -86 -123
-161 -160 -66 -33 -215 -33 -282 0 -74 36 -125 87 -161 160 -30 60 -33 75 -33
152 1 65 6 96 22 132 42 92 139 172 240 198 56 14 151 2 215 -27z"/>
<path d="M3551 4593 l-24 -16 34 -18 c19 -10 49 -31 68 -46 l34 -29 -40 -55
c-91 -121 -147 -255 -124 -298 16 -29 27 -26 35 9 3 17 20 52 38 78 35 51 163
182 178 182 5 0 43 -34 85 -75 73 -74 135 -163 135 -197 0 -24 17 -23 31 3 23
43 -33 177 -124 298 l-40 55 34 29 c19 15 49 36 68 46 l34 18 -24 16 c-31 22
-50 21 -131 -7 l-68 -23 -67 23 c-82 28 -101 29 -132 7z"/>
<path d="M5574 4267 c-122 -46 -197 -176 -173 -302 26 -140 149 -235 289 -222
72 6 125 33 177 90 128 139 71 369 -106 432 -51 18 -143 19 -187 2z"/>
<path d="M1778 4148 c-156 -14 -289 -79 -408 -198 -137 -138 -191 -262 -198
-455 -5 -146 11 -222 70 -345 57 -119 177 -239 298 -298 114 -56 193 -75 315
-76 120 0 199 19 310 73 141 70 240 171 310 316 55 115 69 176 69 300 0 121
-19 199 -75 315 -34 69 -58 101 -128 170 -158 157 -335 219 -563 198z"/>
<path d="M5074 3762 c-62 -22 -101 -51 -136 -104 -121 -178 3 -417 216 -418
81 0 129 17 183 64 85 74 115 189 78 297 -46 134 -206 210 -341 161z"/>
<path d="M6084 3762 c-62 -22 -101 -51 -136 -104 -121 -178 3 -417 216 -418
81 0 129 17 183 64 85 74 115 189 78 297 -46 134 -206 210 -341 161z"/>
<path d="M3145 3676 c-68 -30 -115 -102 -115 -176 0 -110 80 -190 190 -190 84
0 153 44 179 113 26 69 4 174 -46 219 -49 45 -147 61 -208 34z m85 -134 c0 -4
-16 -6 -35 -4 -30 4 -35 1 -35 -17 0 -12 6 -21 15 -21 8 0 15 -4 15 -10 0 -5
-9 -10 -20 -10 -16 0 -20 7 -20 35 0 34 1 35 40 35 22 0 40 -4 40 -8z m60 -62
c0 -28 -2 -30 -40 -30 -38 0 -40 2 -40 30 0 28 2 30 40 30 38 0 40 -2 40 -30z"/>
<path d="M3220 3480 c0 -16 7 -20 30 -20 23 0 30 4 30 20 0 16 -7 20 -30 20
-23 0 -30 -4 -30 -20z"/>
<path d="M4212 3669 c-56 -28 -94 -85 -100 -148 -11 -122 69 -211 190 -211 64
0 111 23 152 74 41 50 48 142 17 204 -46 90 -168 128 -259 81z m126 -136 c-21
-2 -55 -2 -75 0 -21 2 -4 4 37 4 41 0 58 -2 38 -4z m0 -40 c-21 -2 -55 -2 -75
0 -21 2 -4 4 37 4 41 0 58 -2 38 -4z"/>
<path d="M4654 3596 c-17 -13 -20 -32 -26 -158 -4 -79 -10 -156 -14 -171 -10
-44 -49 -57 -204 -68 -76 -5 -174 -18 -216 -29 -138 -36 -256 -23 -312 33 -29
29 -35 44 -39 89 -8 95 -35 133 -86 120 -28 -7 -37 -43 -37 -141 0 -150 -29
-166 -296 -158 -207 6 -278 17 -313 50 -14 13 -47 38 -73 55 -56 38 -65 62
-83 215 -10 85 -17 114 -31 124 -22 16 -26 16 -50 -1 -16 -13 -19 -25 -17 -93
5 -148 34 -236 96 -289 81 -69 167 -124 208 -133 119 -26 194 -33 334 -30 141
4 153 6 209 33 35 17 65 40 75 57 18 33 33 36 52 13 49 -59 221 -82 349 -45
43 12 133 25 210 30 193 14 270 42 304 109 25 51 38 147 34 261 -3 98 -6 115
-22 127 -24 17 -28 17 -52 0z"/>
<path d="M5575 3258 c-38 -14 -99 -58 -125 -91 -34 -43 -51 -97 -52 -162 -1
-162 132 -287 292 -272 72 6 125 33 177 90 128 139 71 369 -106 432 -49 17
-141 19 -186 3z"/>
<path d="M4628 3010 c-78 -12 -188 -52 -256 -92 -31 -18 -91 -67 -133 -108
-163 -161 -233 -403 -184 -634 53 -249 262 -463 510 -522 91 -21 241 -22 325
0 302 77 508 324 527 631 17 276 -134 538 -381 659 -122 60 -282 85 -408 66z"/>
<path d="M2655 2896 c-198 -46 -351 -165 -434 -339 -47 -98 -61 -161 -61 -270
1 -242 130 -450 344 -551 115 -55 189 -70 308 -63 159 9 289 66 399 176 328
328 202 873 -238 1026 -89 31 -233 40 -318 21z"/>
<path d="M6370 2471 c-95 -16 -159 -35 -200 -61 -106 -66 -102 -64 -190 -66
-47 0 -91 -2 -97 -3 -9 -1 -13 -22 -13 -69 0 -59 4 -72 28 -101 49 -60 174
-176 187 -173 7 1 15 -7 18 -19 3 -11 10 -18 15 -15 5 3 21 -4 36 -15 22 -18
25 -26 21 -57 -3 -21 -10 -131 -15 -247 l-10 -210 -63 -59 c-34 -32 -54 -53
-45 -46 17 12 44 10 81 -5 12 -5 17 -3 17 9 0 9 5 16 11 16 7 0 8 -14 4 -40
-5 -30 -3 -40 7 -40 19 1 48 25 48 41 0 8 7 1 15 -15 20 -38 19 -46 -5 -46
-11 0 -20 -7 -20 -15 0 -24 16 -18 81 30 75 55 90 59 191 52 76 -6 79 -6 73
13 -7 23 10 28 18 6 5 -12 11 -13 36 -3 40 15 83 0 91 -32 3 -13 12 -25 20
-27 80 -16 90 -16 104 -1 9 9 16 26 16 39 0 74 54 179 82 162 10 -6 38 13 38
27 0 4 -21 14 -47 22 l-48 14 78 8 c42 4 77 10 77 14 -1 3 -7 17 -15 31 -8 14
-14 42 -15 62 0 21 -9 60 -20 88 -11 28 -29 88 -41 133 -23 92 -44 149 -71
189 l-19 27 31 35 c18 19 39 48 48 64 10 16 34 54 54 84 20 31 40 67 43 80 l6
25 -153 7 -153 7 -77 44 c-42 25 -93 46 -115 49 -21 2 -85 -4 -143 -13z m153
-305 c9 -7 17 -18 17 -25 0 -6 5 -11 10 -11 6 0 10 10 10 23 0 21 4 23 38 20
20 -2 47 -6 59 -9 25 -5 73 -52 73 -72 0 -7 7 -15 15 -18 22 -9 18 -48 -6 -70
-30 -27 -46 -62 -54 -115 -5 -35 -13 -50 -31 -60 -18 -9 -24 -21 -24 -44 0
-19 -11 -46 -25 -66 -14 -19 -35 -55 -47 -81 -12 -27 -28 -48 -35 -48 -7 0
-24 18 -38 40 -14 22 -30 40 -36 40 -23 0 -86 76 -91 111 -4 21 -22 52 -47 79
-23 25 -41 48 -41 51 0 3 -9 16 -20 29 -24 27 -22 44 6 46 63 3 74 5 74 14 0
6 -14 10 -32 10 -45 0 -22 20 31 27 37 5 40 8 29 22 -7 9 -19 26 -25 38 -11
20 -10 24 8 34 12 6 29 9 38 6 9 -2 32 6 51 19 40 26 67 29 93 10z m-243 -49
c0 -7 -16 -19 -36 -26 -31 -11 -38 -11 -52 3 -17 16 -14 19 33 29 38 9 55 7
55 -6z m-148 -59 c-7 -7 -12 -8 -12 -2 0 14 12 26 19 19 2 -3 -1 -11 -7 -17z
m89 -18 c22 -18 22 -19 5 -20 -11 0 -28 -8 -39 -17 -18 -17 -19 -17 -33 2 -21
28 -18 48 6 42 11 -3 20 -1 20 4 0 15 16 10 41 -11z m165 -481 c18 -20 18 -21
-1 -35 -45 -33 -80 -10 -55 37 14 25 32 24 56 -2z m534 1 c12 -8 11 -10 -7
-10 -13 0 -23 5 -23 10 0 13 11 13 30 0z m-696 -135 c-10 -8 -15 -15 -10 -15
25 -1 -47 -40 -74 -40 -31 0 -32 1 -18 22 8 12 34 27 59 34 61 16 65 16 43 -1z"/>
<path d="M6597 2103 c-14 -14 -6 -31 17 -37 25 -6 86 11 86 24 0 16 -89 28
-103 13z"/>
<path d="M6525 1899 c-5 -6 -28 -8 -63 -4 l-57 6 25 -20 c33 -27 62 -26 90 4
13 14 21 25 17 25 -3 0 -9 -5 -12 -11z"/>
<path d="M6415 1803 c-3 -8 -5 -26 -5 -40 0 -23 3 -25 31 -19 17 3 60 6 95 6
58 0 64 2 64 20 0 27 -39 42 -117 45 -46 1 -64 -2 -68 -12z"/>
<path d="M7090 1502 c0 -10 22 -32 32 -32 15 0 8 28 -8 34 -21 8 -24 8 -24 -2z"/>
<path d="M7090 1460 c0 -5 5 -10 10 -10 6 0 10 5 10 10 0 6 -4 10 -10 10 -5 0
-10 -4 -10 -10z"/>
<path d="M7143 1443 c-25 -17 -31 -53 -10 -53 15 0 41 43 36 58 -2 6 -13 3
-26 -5z"/>
<path d="M7319 1373 c23 -29 45 -53 48 -53 7 0 -54 75 -74 91 -10 8 2 -10 26
-38z"/>
<path d="M7196 1375 c-7 -20 21 -46 41 -38 18 7 16 22 -4 30 -10 4 -21 11 -24
16 -3 5 -9 1 -13 -8z"/>
<path d="M7247 1334 c-3 -3 -1 -14 5 -24 9 -14 15 -16 29 -7 16 10 16 12 1 24
-19 14 -26 16 -35 7z"/>
<path d="M2310 1271 c-112 -36 -352 -178 -367 -217 -3 -8 -8 -12 -12 -9 -15 9
-234 -200 -557 -531 -183 -188 -335 -340 -337 -337 -3 2 -18 -12 -36 -32 -17
-20 -31 -33 -31 -30 0 4 -17 -6 -37 -22 -55 -42 -90 -63 -131 -78 -31 -11 437
-14 2948 -14 2554 0 2980 2 2947 14 -79 29 -195 124 -387 314 -107 107 -199
193 -203 192 -5 -1 -6 2 -3 7 3 5 -92 105 -212 223 -211 209 -322 309 -322
293 0 -5 -6 1 -14 12 -21 30 -154 119 -243 164 -153 76 -29 70 -1567 69 -1293
0 -1385 -1 -1436 -18z"/>
<path d="M6090 1244 c0 -43 14 -61 34 -45 18 15 23 66 6 56 -6 -4 -17 -1 -25
5 -13 10 -15 8 -15 -16z"/>
<path d="M7392 1213 c-1 -17 -5 -40 -8 -50 -5 -14 -4 -15 5 -7 7 7 11 28 8 50
-3 35 -4 35 -5 7z"/>
<path d="M7488 1068 c-2 -200 -4 -228 -11 -248 -3 -8 -8 -32 -12 -54 -3 -21
-17 -76 -30 -121 -14 -46 -26 -89 -27 -96 -2 -8 -6 -16 -9 -19 -4 -3 -19 -30
-34 -60 -15 -30 -41 -74 -57 -97 -16 -24 -26 -43 -23 -43 4 0 -7 -12 -24 -26
-17 -14 -28 -30 -25 -35 3 -5 2 -8 -3 -7 -13 4 -52 -35 -46 -46 3 -6 3 -8 -1
-4 -5 4 -32 -13 -62 -37 -69 -56 -218 -130 -314 -155 l-75 -19 383 0 382 -1 0
620 c0 341 -2 620 -5 620 -3 0 -6 -78 -7 -172z"/>
<path d="M932 1177 c-46 -47 -43 -57 13 -57 17 0 22 -5 19 -17 -3 -10 24 -117
59 -238 l64 -220 -145 -3 c-80 -1 -148 0 -151 4 -7 7 -7 42 4 328 l8 230 -50
-42 c-48 -41 -50 -45 -51 -95 -1 -58 -29 -323 -40 -376 -4 -19 -13 -36 -19
-38 -33 -11 -157 148 -258 330 l-38 69 38 38 37 38 -74 6 c-40 4 -84 9 -98 12
-20 4 -36 -7 -85 -56 l-59 -60 30 0 c71 0 88 -15 155 -133 35 -61 66 -115 67
-120 2 -4 -33 -49 -78 -100 l-82 -92 86 87 86 87 31 -45 c17 -25 45 -61 61
-80 l31 -35 -22 -23 -22 -24 68 -4 c61 -5 71 -3 94 18 31 30 39 30 39 2 l0
-23 177 2 177 2 42 42 42 41 21 -48 22 -48 55 55 c55 54 74 80 274 367 77 112
110 152 125 152 12 0 40 20 64 44 l43 44 -52 7 c-52 7 -53 7 -99 -39 -45 -46
-45 -46 -18 -46 15 0 27 -2 27 -5 0 -2 -30 -45 -67 -94 -38 -50 -93 -127 -123
-172 -30 -44 -75 -108 -99 -141 l-44 -60 -18 34 c-9 18 -24 58 -32 88 -8 30
-34 120 -57 199 l-41 144 47 49 48 48 -74 0 c-41 0 -84 3 -95 6 -14 3 -32 -7
-63 -39z"/>
<path d="M7350 1065 c-7 -9 -11 -17 -9 -20 3 -2 10 5 17 15 14 24 10 26 -8 5z"/>
<path d="M6000 991 c0 -6 4 -13 10 -16 6 -3 7 1 4 9 -7 18 -14 21 -14 7z"/>
<path d="M7227 938 c-44 -44 -207 -111 -343 -141 -72 -16 -191 -26 -309 -28
-114 -1 -336 43 -374 74 -8 7 -4 -7 8 -32 57 -110 175 -188 334 -218 156 -30
348 5 477 88 63 39 89 69 160 180 17 26 42 58 56 73 15 14 24 26 20 26 -4 0
-17 -10 -29 -22z"/>
</g>
</svg>
