<?xml version="1.0" encoding="UTF-8" standalone="no"?>
<!DOCTYPE svg PUBLIC "-//W3C//DTD SVG 20010904//EN"
              "http://www.w3.org/TR/2001/REC-SVG-20010904/DTD/svg10.dtd">

<svg xmlns="http://www.w3.org/2000/svg"
     width="211.685mm" height="177.815mm"
     viewBox="0 0 750 630">
  <path id="Selection #1"
        fill="none" stroke="black" stroke-width="1"
        d="M 151.00,122.00
           C 151.00,122.00 154.59,93.00 154.59,93.00
             158.53,69.48 165.21,31.88 183.01,15.09
             188.70,9.73 191.55,9.26 198.00,6.03
             205.50,2.28 207.05,0.11 216.00,0.00
             216.00,0.00 226.00,0.00 226.00,0.00
             237.73,0.06 241.31,6.94 240.96,18.00
             240.96,18.00 240.00,29.00 240.00,29.00
             240.00,29.00 240.00,49.00 240.00,49.00
             240.00,49.00 239.03,63.00 239.03,63.00
             239.03,63.00 240.00,76.00 240.00,76.00
             240.00,76.00 240.00,96.00 240.00,96.00
             240.00,96.00 241.00,110.00 241.00,110.00
             241.00,110.00 182.00,118.15 182.00,118.15
             182.00,118.15 151.00,122.00 151.00,122.00 Z
           M 509.00,110.00
           C 509.00,110.00 509.98,100.00 509.98,100.00
             509.98,100.00 509.98,82.00 509.98,82.00
             509.98,82.00 511.00,60.00 511.00,60.00
             511.00,60.00 510.00,46.00 510.00,46.00
             510.00,46.00 510.00,30.00 510.00,30.00
             509.94,18.43 504.88,0.25 523.00,0.00
             523.00,0.00 534.00,0.00 534.00,0.00
             543.25,0.12 544.38,2.12 552.00,6.02
             558.48,9.34 561.16,9.60 566.99,15.09
             573.92,21.62 578.84,31.23 582.40,40.00
             588.74,55.65 593.69,79.14 596.00,96.00
             596.00,96.00 599.00,122.00 599.00,122.00
             599.00,122.00 556.00,116.42 556.00,116.42
             556.00,116.42 509.00,110.00 509.00,110.00 Z
           M 215.00,129.42
           C 221.65,128.61 240.11,128.23 246.00,130.47
             261.21,136.24 270.27,146.92 288.00,147.00
             288.00,147.00 461.00,147.00 461.00,147.00
             481.18,146.97 488.28,135.69 505.00,130.10
             510.10,128.40 523.07,128.93 529.00,129.00
             550.96,129.26 580.91,140.84 601.00,149.58
             607.88,152.57 624.85,160.43 629.67,165.32
             636.46,172.21 634.46,181.68 641.21,188.90
             646.40,194.44 653.47,194.82 660.90,206.00
             664.48,211.40 670.62,228.05 673.40,235.00
             673.40,235.00 696.69,297.00 696.69,297.00
             712.69,341.80 726.90,385.66 737.88,432.00
             742.67,452.20 749.97,490.88 750.00,511.00
             750.00,511.00 750.00,533.00 750.00,533.00
             749.60,566.87 734.40,601.18 705.00,619.19
             697.23,623.95 682.19,630.55 673.00,629.90
             666.25,629.43 660.25,625.04 655.00,621.11
             643.26,612.32 633.05,601.55 622.96,591.00
             622.96,591.00 605.04,573.00 605.04,573.00
             588.75,555.97 572.71,538.83 554.00,524.35
             536.59,510.87 520.67,501.04 498.00,501.00
             498.00,501.00 252.00,501.00 252.00,501.00
             229.45,501.04 213.32,510.94 196.00,524.35
             177.29,538.83 161.25,555.97 144.96,573.00
             144.96,573.00 127.01,591.00 127.01,591.00
             116.52,601.75 106.17,612.92 94.00,621.85
             87.74,626.43 82.11,630.40 74.00,629.91
             65.43,629.38 52.29,623.66 45.00,619.19
             14.70,600.63 0.05,565.70 0.00,531.00
             0.00,531.00 0.00,511.00 0.00,511.00
             0.03,489.65 7.44,452.40 12.35,431.00
             24.55,377.86 42.44,326.08 61.32,275.00
             61.32,275.00 78.60,230.00 78.60,230.00
             81.12,223.70 85.70,211.12 89.10,206.00
             97.10,193.96 105.17,194.19 110.35,186.98
             115.56,179.75 113.88,171.08 121.18,164.52
             126.13,160.07 142.36,152.46 149.00,149.58
             173.07,139.11 188.85,133.37 215.00,129.42 Z
           M 170.00,581.00
           C 170.00,581.00 171.00,581.00 171.00,581.00
             171.00,581.00 170.00,582.00 170.00,582.00
             170.00,582.00 170.00,581.00 170.00,581.00 Z" />
</svg>
